<svg xmlns="http://www.w3.org/2000/svg" viewBox="0 0 1440 320"><path fill="#7289da" fill-opacity="1" d="M0,128L17.1,117.3C34.3,107,69,85,103,112C137.1,139,171,213,206,229.3C240,245,274,203,309,202.7C342.9,203,377,245,411,240C445.7,235,480,181,514,149.3C548.6,117,583,107,617,122.7C651.4,139,686,181,720,208C754.3,235,789,245,823,213.3C857.1,181,891,107,926,106.7C960,107,994,181,1029,208C1062.9,235,1097,213,1131,192C1165.7,171,1200,149,1234,170.7C1268.6,192,1303,256,1337,250.7C1371.4,245,1406,171,1423,133.3L1440,96L1440,320L1422.9,320C1405.7,320,1371,320,1337,320C1302.9,320,1269,320,1234,320C1200,320,1166,320,1131,320C1097.1,320,1063,320,1029,320C994.3,320,960,320,926,320C891.4,320,857,320,823,320C788.6,320,754,320,720,320C685.7,320,651,320,617,320C582.9,320,549,320,514,320C480,320,446,320,411,320C377.1,320,343,320,309,320C274.3,320,240,320,206,320C171.4,320,137,320,103,320C68.6,320,34,320,17,320L0,320Z"></path></svg>