<svg width="1440" height="191" xmlns="http://www.w3.org/2000/svg" xmlns:xlink="http://www.w3.org/1999/xlink" preserveAspectRatio="xMidYMid meet">
 <defs>
  <path id="c1yTvaEcl4" d="m1398.949951,869.859985c-13.619995,-23.839966 -48.439941,-22.450012 -60.130005,2.390015c-4.449951,9.440002 5.550049,-11.809998 0,0c-11.409912,24.23999 -42.339966,31.700012 -63.539917,15.309998c-19.23999,-14.859985 -24.75,-19.119995 -41.26001,-31.880005c-26.890015,-20.779968 -66.25,-8.869995 -77.099976,23.330017c-3.75,11.130005 4.429932,-13.150024 0,0c-7.920044,23.5 -38.980103,28.429993 -53.780029,8.539978c-11.060059,-14.869995 -9.339966,-12.549988 -20.430054,-27.459961c-16.549927,-22.240051 -50.429932,-20.410034 -64.48999,3.48999c-6.579956,11.179993 -6.519958,11.079956 -15.549988,26.440002c-7.119995,12.099976 -25,10.829956 -30.349976,-2.150024c-6.140015,-14.919983 -4.059998,-9.869995 -8.330017,-20.23999c-10.25,-24.890015 -43.169983,-30.169983 -60.690002,-9.72998c-7.339966,8.569946 7.660034,-8.930054 0,0c-19.140015,22.329956 -53.809998,21.940002 -72.440002,-0.820007c-11.640015,-14.230042 -0.679993,-0.830017 -9.779968,-11.950012c-23.210022,-28.359985 -67.710022,-24.330017 -85.460022,7.72998c-5.299988,9.580017 -2.859985,5.170044 -12.830017,23.190002c-6.109985,11.040039 -21.849976,11.419983 -28.48999,0.679993c-7.859985,-12.699951 -7.630005,-12.329956 -13.25,-21.419983c-12.369995,-20 -41.109985,-20.960022 -54.779968,-1.830017c-9.440002,13.200012 -12.710022,17.780029 -23.080017,32.280029c-9.390015,13.140015 -29.900024,9.099976 -33.599976,-6.630005c-3.100037,-13.179993 -0.350037,-1.51001 -2.809998,-11.97998c-4.590027,-19.5 -30.620056,-23.440002 -40.780029,-6.170044c-6.880005,11.700012 -3.109985,5.280029 -10.900024,18.540039c-10.549988,17.929993 -36.469971,17.929993 -47.019989,0c-7.799988,-13.26001 -0.389984,-0.660034 -6.359985,-10.820007c-14.26001,-24.23999 -49.579987,-23.450012 -62.73999,1.409973c-5.230011,9.869995 6.019989,-11.380005 0,0c-10.360016,19.559998 -38.839996,18.119995 -47.180023,-2.380005c-4.429993,-10.899963 2.320007,5.679993 -2.369995,-5.829956c-6.179993,-15.210022 -28.220001,-13.550049 -32.059998,2.409973c-2.660004,11.030029 0.470001,-1.98999 -2.47998,10.280029c-3.590027,14.899963 -23.940002,16.97998 -30.460022,3.109985c-6.070007,-12.890015 -0.369995,-0.790039 -5.380005,-11.429993c-9.569977,-20.330017 -38.72998,-19.610046 -47.279984,1.169983c-4.290009,10.400024 1.470001,-3.580017 -3.740005,9.070007c-7.029999,17.089966 -30.789993,18.22998 -39.429993,1.899963c-6.910004,-13.029968 -5.860001,-11.059998 -12.76001,-24.089966c-8.039993,-15.179993 -30.399994,-13.080017 -35.470001,3.330017c-4.759995,15.399963 -4.069992,13.159973 -8.519989,27.559998c-5.580009,18.070007 -30.280006,20.25 -38.940002,3.429993c-7.760002,-15.080017 -3.670006,-7.130005 -10.510002,-20.410034c-10.660004,-20.719971 -40.960003,-18.579956 -48.610001,3.440002c-8.380001,24.130005 -126.290001,51.110046 -159.809998,147.610046c99.869997,0 700.249977,3.029968 1801.129982,9.089966c-182.540039,-102.929993 -274.589966,-155.76001 -276.160034,-158.51001z"/>
 </defs>
 <g>
  <title>background</title>
  <rect fill="none" id="canvas_background" height="193" width="1442" y="-1" x="-1"/>
 </g>
 <g>
  <title>Layer 1</title>
  <g id="svg_1">
   <g id="svg_2">
    <g id="svg_3">
     <use x="-16.949109" y="-820.496216" id="svg_4" fill="#7289da" xlink:href="#c1yTvaEcl4"/>
     <g id="svg_5">
      <use x="-16.949109" y="-820.496216" id="svg_6" stroke-opacity="0" stroke="#000000" fill-opacity="0" xlink:href="#c1yTvaEcl4"/>
     </g>
    </g>
   </g>
  </g>
 </g>
</svg>